<svg xmlns="http://www.w3.org/2000/svg" xmlns:svg="http://www.w3.org/2000/svg" id="svg249" width="259.538" height="236.649" version="1.1" viewBox="0 0 68.669 62.613"><defs id="defs246"><radialGradient id="radialGradient35" cx="0" cy="0" r="1" fx="0" fy="0" gradientTransform="matrix(92.843208,-30.156277,-30.156277,-92.843208,636.62183,481.56351)" gradientUnits="userSpaceOnUse" spreadMethod="pad"><stop style="stop-opacity:1;stop-color:#94d6da" id="stop29" offset="0"/><stop style="stop-opacity:1;stop-color:#22bec6" id="stop31" offset=".465"/><stop style="stop-opacity:1;stop-color:#3663ae" id="stop33" offset="1"/></radialGradient><linearGradient id="linearGradient105" x1="0" x2="1" y1="0" y2="0" gradientTransform="matrix(33.221798,-62.97123,-62.97123,-33.221798,562.69965,476.5293)" gradientUnits="userSpaceOnUse" spreadMethod="pad"><stop style="stop-opacity:1;stop-color:#d189bb" id="stop99" offset="0"/><stop style="stop-opacity:1;stop-color:#d189bb" id="stop101" offset=".005"/><stop style="stop-opacity:1;stop-color:#4a3083" id="stop103" offset="1"/></linearGradient><radialGradient id="radialGradient127" cx="0" cy="0" r="1" fx="0" fy="0" gradientTransform="matrix(83.886902,-31.709297,-31.709297,-83.886902,642.21033,498.80905)" gradientUnits="userSpaceOnUse" spreadMethod="pad"><stop style="stop-opacity:1;stop-color:#ffcb04" id="stop121" offset="0"/><stop style="stop-opacity:1;stop-color:#ffcb04" id="stop123" offset=".002"/><stop style="stop-opacity:1;stop-color:#f15a29" id="stop125" offset="1"/></radialGradient></defs><g id="layer1" transform="translate(-63.343648,-51.954294)"><g id="g17" transform="matrix(0.35277777,0,0,-0.35277777,-129.63238,253.34842)"><g id="g19"><g id="g25"><g id="g27"><path style="fill:url(#radialGradient35);stroke:none" id="path37" d="M 621.472,567.858 C 574.42,557.779 538.58,526.435 548.757,530.335 v 0 c 44.378,17.001 134.252,21.306 140.962,-31.353 v 0 c 2.16,-16.956 -9.641,-38.377 -25.572,-51.125 v 0 c -36.062,-28.855 -88.707,-19.354 -94.877,0.406 v 0 c -6.831,21.872 15.792,43.635 22.832,50.096 v 0 c 0.24,0.219 -0.063,0.583 -0.328,0.393 v 0 c -28.619,-20.463 -72.52,-71.113 -19.883,-95.138 v 0 c 75.609,-34.51 173.457,24.002 169.675,91.565 v 0 c -2.77,49.441 -44.485,75.7 -91.915,75.702 v 0 c -9.259,10e-4 -18.731,-1 -28.179,-3.023"/></g></g></g></g><g id="g87" transform="matrix(0.35277777,0,0,-0.35277777,-129.63238,253.34842)"><g id="g89"><g id="g95"><g id="g97"><path style="fill:url(#linearGradient105);stroke:none" id="path107" d="m 591.774,498.752 c -28.619,-20.463 -72.52,-71.113 -19.883,-95.138 v 0 c 13.239,-6.042 27.16,-9.223 41.097,-10.012 v 0 c -3.412,0.594 -6.819,1.505 -10.179,2.775 v 0 c -26.716,10.099 -41.121,38.53 -34.34,65.578 v 0 c 2.837,16.684 18.08,31.307 23.633,36.404 v 0 c 0.193,0.176 0.035,0.446 -0.173,0.446 v 0 c -0.05,0 -0.103,-0.016 -0.155,-0.053"/></g></g></g></g><g id="g109" transform="matrix(0.35277777,0,0,-0.35277777,-129.63238,253.34842)"><g id="g111"><g id="g117"><g id="g119"><path style="fill:url(#radialGradient127);stroke:none" id="path129" d="M 621.472,567.858 C 574.42,557.779 538.58,526.435 548.757,530.335 v 0 c 35.242,13.501 99.172,18.99 127.361,-5.694 v 0 c 25.201,-19.502 35.905,-53.849 24.052,-85.209 v 0 c -5.617,-14.855 -15.482,-26.849 -27.681,-35.16 v 0 c 40.655,17.171 71.222,52.579 69.077,90.907 v 0 c -2.77,49.441 -44.485,75.7 -91.915,75.702 v 0 c -9.259,10e-4 -18.731,-1 -28.179,-3.023"/></g></g></g></g></g></svg>